PathFileType	4	(X/Y/Z)	C:/Users/beibeiliu/ov580/test_trc/User3\sequence.29_training_dense_left.trc
DataRate	CameraRate	NumFrames	NumMarkers	Units	OrigDataRate	OrigDataStartFrame	OrigNumFrames
120	120	17	19	mm	120	33	260
Frame#	Time	ThumbCMC			ThumbMCP			ThumbIP			ThumbTip			IndexMCP			IndexPIP			IndexTip			MiddleMCP			MiddlePIP			MiddleTip			RingMCP			RingPIP			RingTip			PinkyMCP			PinkyPIP			PinkyTip			BackHand1			BackHand2			BackHand3	
		X0	Y0	Z0	X1	Y1	Z1	X2	Y2	Z2	X3	Y3	Z3	X4	Y4	Z4	X5	Y5	Z5	X6	Y6	Z6	X7	Y7	Z7	X8	Y8	Z8	X9	Y9	Z9	X10	Y10	Z10	X11	Y11	Z11	X12	Y12	Z12	X13	Y13	Z13	X14	Y14	Z14	X15	Y15	Z15	X16	Y16	Z16	X17	Y17	Z17	X18	Y18	Z18	
32	0.266667	-141.956	-30.1329	19.1045	-120.429	-37.4358	-0.384836	-104.355	-44.1431	-24.9646	-104.289	-51.5299	-49.7404	-147.346	-5.45429	-52.9922	-143.388	-21.9119	-83.3921	-141.842	-53.9587	-74.8394	-170.138	-15.1991	-64.4357	-163.658	-42.2832	-84.4739	-160.118	-69.9299	-55.7527	-188.102	-16.9938	-60.4076	-187.192	-35.4729	-83.8972	-179.572	-67.415	-82.0122	-213.79	-21.838	-46.1944	-212.811	-23.163	-71.5359	-211.544	-37.2797	-95.0022	-198.519	-4.63789	-7.37742	-200.799	-10.8735	24.4461	-170.197	-5.90529	11.0084	
33	0.275	-139.696	-29.9205	21.4963	-119.345	-37.2005	-1.32224	-104.975	-43.2324	-29.3031	-103.738	-50.8935	-48.3513	-150.215	-10.0458	-55.3156	-144.181	-29.1915	-82.2546	-142.121	-60.6246	-70.8882	-167.351	-18.1588	-66.1254	-163.236	-45.1582	-82.3546	-160.529	-74.1877	-58.1867	-188.098	-16.6659	-62.1485	-188.049	-31.1161	-84.6554	-182.082	-62.033	-95.4182	-214.409	-18.6767	-48.6285	-214.417	-19.75	-70.1245	-220.876	-23.1791	-92.3507	-194.824	-3.88277	-6.66173	-200.704	-8.41081	20.744	-169	-3.22751	10.4991	
34	0.283333	-142.412	-30.1495	21.2423	-119.576	-38.3432	0.533005	-107.224	-43.1024	-24.8691	-104.75	-49.281	-49.5085	-147.068	-12.4065	-54.6249	-142.736	-38.6877	-79.4301	-143.338	-64.8188	-69.7937	-166.551	-20.0819	-66.5858	-163.44	-50.8998	-79.2099	-161.859	-79.0808	-51.6085	-191.766	-15.7866	-60.7845	-186.546	-27.9708	-87.316	-184.71	-52.8528	-105.023	-214.151	-20.2021	-43.2398	-216.962	-16.4166	-69.2844	-220.654	-15.2252	-91.1129	-195.234	-3.79349	-6.06329	-202.464	-9.37523	24.9227	-170.322	-3.71662	10.5751	
35	0.291667	-141.419	-31.4274	22.927	-121.052	-36.116	-2.75041	-109.225	-41.1688	-25.3957	-105.403	-48.3315	-49.8075	-144.774	-14.0504	-56.1974	-137.703	-42.8833	-76.7261	-142.037	-68.3277	-66.4807	-170.309	-22.3586	-66.4604	-161.774	-52.7468	-76.451	-160.312	-81.2427	-51.1478	-192.796	-16.2353	-61.1766	-189.018	-26.5119	-87.5368	-186.363	-43.433	-106.537	-214.778	-15.86	-47.8168	-217.959	-13.9991	-69.0633	-225.013	-12.6523	-86.7476	-197.907	-2.09057	-7.96052	-204.034	-7.38761	23.1517	-169.785	-5.4872	12.4639	
36	0.3	-141.215	-31.1539	22.6421	-122.782	-35.9451	-2.46566	-109.149	-40.8037	-24.8976	-99.1803	-47.3673	-49.8982	-148.743	-17.0812	-56.5613	-142.988	-40.6353	-76.0388	-146.552	-71.2964	-66.2702	-168.881	-21.6184	-63.2932	-161.428	-51.1202	-76.0946	-165.583	-81.5013	-52.3357	-192.575	-16.0966	-58.7773	-190.01	-24.5445	-82.1501	-186.559	-40.7618	-110.197	-212.194	-15.7204	-48.1172	-215.576	-13.6121	-67.3691	-225.652	-8.96436	-88.1303	-200.057	-3.95674	-4.73256	-202.895	-6.83516	22.6144	-169.706	-5.3401	12.2858	
37	0.308333	-142.729	-31.355	20.2869	-122.054	-35.3352	-3.32198	-108.533	-40.9368	-24.1587	-98.7105	-46.5908	-48.3776	-147.69	-19.909	-59.6284	-142.447	-45.5003	-75.6177	-143.889	-74.5105	-64.4583	-170.832	-22.0253	-61.357	-164.87	-53.0181	-74.6585	-167.433	-81.8892	-51.4811	-193.694	-15.9273	-59.1682	-188.044	-24.7183	-85.8283	-191.474	-38.4827	-111.303	-214.198	-15.9294	-42.6793	-218.453	-13.2229	-64.8119	-220.754	-5.81038	-82.8119	-194.832	-3.65515	-2.09643	-205.558	-7.16998	23.8795	-164.996	-4.14612	11.5815	
38	0.316667	-144.667	-31.5664	20.8626	-119.786	-37.7654	0.165547	-105.189	-41.0932	-24.8135	-102.608	-47.7169	-46.3166	-145.845	-18.1696	-54.8396	-138.35	-46.3797	-74.032	-146.075	-75.3112	-66.8166	-165.017	-22.1474	-60.9131	-163.995	-54.6055	-73.6356	-167.534	-85.2651	-48.4882	-188.972	-15.3919	-60.7628	-188.839	-23.5661	-84.1575	-189.576	-35.8121	-107.821	-211.293	-14.477	-45.9816	-218.212	-11.4873	-64.5334	-224.33	-2.39079	-87.1261	-197.505	-4.67674	-3.41074	-199.65	-7.37532	23.9637	-164.376	-3.72716	13.3253	
39	0.325	-145.242	-32.6123	20.9775	-125.22	-39.0861	0.894759	-106.213	-42.5213	-26.9627	-100.078	-48.0803	-52.0683	-145.412	-22.7266	-58.6375	-139.94	-44.9884	-73.8259	-144.457	-78.4168	-67.0999	-168.964	-25.726	-64.1291	-164.548	-57.3096	-73.3654	-167.209	-85.2449	-54.3442	-188.159	-15.9259	-59.807	-189.731	-25.3941	-84.7454	-192.041	-37.2585	-110.364	-212.121	-13.9731	-47.5638	-216.872	-10.9819	-66.3163	-222.464	-4.29946	-88.0299	-193.785	-2.55096	-3.25666	-202.084	-8.43512	23.455	-163.691	-6.02577	15.2411	
40	0.333333	-138.966	-34.9973	20.8659	-122.703	-40.4116	-1.90695	-105.483	-44.2726	-26.2081	-97.6216	-50.5414	-49.0797	-145.789	-23.9787	-58.7142	-139.908	-49.1238	-72.9375	-145.966	-77.7486	-71.2169	-167.668	-25.8819	-63.0564	-163.666	-54.7167	-75.7251	-160.974	-88.8284	-58.7536	-190.849	-16.7932	-60.0983	-189.376	-23.8019	-83.526	-188.535	-36.7382	-110.528	-209.335	-14.8542	-44.1017	-217.51	-12.1596	-64.3646	-220.187	-3.03705	-84.5045	-196.643	-3.33238	-6.82763	-200.561	-8.72111	24.2682	-165.816	-5.73776	14.3809	
41	0.341667	-138.565	-35.5328	21.4407	-124.644	-44.4358	0.337825	-104.334	-48.4537	-28.6349	-99.8299	-52.9415	-50.2433	-142.788	-24.8631	-55.0878	-138.94	-48.0144	-72.3494	-145.07	-77.3805	-73.4381	-166.814	-26.626	-64.2889	-161.864	-54.3053	-78.3552	-164.735	-89.7284	-69.654	-191.211	-17.0566	-59.5465	-186.809	-24.6679	-83.0197	-186.738	-35.6886	-108.348	-212.822	-15.2639	-45.7147	-216.393	-12.386	-65.8463	-223.979	-4.11925	-87.2858	-193.356	-4.49411	-5.21332	-196.663	-9.63942	24.0168	-162.512	-7.78873	15.7328	
42	0.35	-140.283	-37.3247	18.0696	-120.206	-46.0683	-0.942681	-109.944	-50.7006	-30.564	-102.348	-57.2301	-48.8702	-138.797	-26.3051	-54.3215	-137.46	-53.8245	-71.9981	-141.764	-83.844	-73.9245	-164.366	-28.4076	-64.9082	-162.121	-53.735	-80.4934	-158.116	-91.4884	-79.309	-189.591	-19.0247	-59.3362	-191.008	-27.1511	-84.8186	-187.923	-35.8917	-108.551	-211.545	-16.9558	-45.9614	-214.857	-13.7106	-66.4871	-220.388	-7.15223	-86.2302	-191.969	-5.37241	-2.87601	-197.746	-10.6231	24.8068	-162.96	-8.74284	15.2387	
43	0.358333	-139.254	-38.3527	20.052	-124.725	-47.3011	-3.35096	-110.328	-54.4713	-26.6147	-101.557	-61.3888	-51.7211	-143.039	-28.7786	-56.3029	-134.718	-51.9271	-70.4742	-140.043	-79.9599	-75.4117	-164.945	-26.0696	-62.0313	-156.535	-52.6525	-82.5247	-157.62	-84.3573	-87.9244	-187.108	-19.9516	-62.3448	-188.184	-26.0949	-82.001	-190.411	-36.9539	-108.649	-207.596	-17.2282	-48.429	-214.376	-16.9552	-66.5476	-219.523	-13.0172	-85.349	-189.828	-4.93588	-5.80385	-200.652	-9.86891	24.3409	-161.088	-9.20666	16.008	
44	0.366667	-143.751	-38.1509	21.4135	-122.237	-49.4859	-2.63093	-107.801	-55.2381	-31.6287	-106.068	-61.4766	-51.3639	-139.12	-28.3005	-52.931	-134.957	-51.3961	-69.6112	-140.307	-82.504	-74.0945	-160.003	-23.9941	-60.4819	-156.76	-45.9214	-81.1904	-152.661	-79.4879	-94.0549	-186.817	-20.6988	-63.0044	-186.199	-27.2659	-81.8857	-187.25	-40.7918	-108.254	-207.109	-20.4367	-45.3779	-213.527	-22.4151	-71.105	-214.511	-22.9428	-93.8861	-190.902	-5.91348	-4.11382	-195.343	-9.57579	23.9532	-159.487	-6.73522	13.0497	
45	0.375	-141.283	-37.5618	19.7146	-123.052	-48.4554	-5.4488	-113.296	-56.1551	-28.7039	-106.42	-63.1135	-47.9991	-137.617	-26.5733	-53.4396	-131.945	-52.2575	-69.5944	-135.93	-80.3883	-73.1441	-158.729	-22.3134	-63.8242	-156.027	-44.2868	-86.3355	-150.264	-71.3818	-99.3556	-181.6	-19.512	-60.2577	-182.146	-29.7419	-81.4924	-181.41	-47.6041	-108.441	-207.119	-22.924	-51.5141	-211.488	-30.1708	-71.0718	-210.757	-36.1463	-91.8041	-195.338	-5.87861	-4.13784	-196.936	-8.56283	26.3011	-162.231	-7.42254	15.1686	
46	0.383333	-138.612	-34.9803	17.7642	-120.541	-48.3927	-3.6681	-111.638	-55.299	-29.5084	-110.723	-62.228	-54.3719	-136.787	-21.4185	-53.1488	-131.161	-43.379	-72.5169	-136.009	-74.1004	-76.9921	-157.358	-14.9996	-64.142	-151.641	-34.7837	-90.4175	-149.301	-62.5487	-104.003	-186.472	-18.9334	-59.873	-179.185	-30.0084	-83.6754	-180.179	-51.0892	-103.897	-205.374	-25.9355	-53.4334	-204.546	-34.6553	-69.6893	-201.615	-52.4588	-87.884	-191.46	-4.87961	-5.56556	-199.075	-10.633	25.4905	-161.571	-6.89657	14.5948	
47	0.391667	-137.664	-36.3021	18.9955	-124.913	-48.1965	-5.96829	-108.638	-56.7095	-33.1864	-108.43	-65.3652	-54.3546	-136.19	-16.53	-56.3915	-127.816	-35.0851	-74.5663	-128.302	-66.8303	-80.7563	-161.632	-6.72176	-60.7661	-156.962	-20.5953	-91.8939	-149.176	-51.7903	-108.06	-183.486	-17.1918	-62.8812	-177.847	-29.1829	-84.3212	-176.132	-55.8507	-101.465	-201.312	-27.6091	-50.5245	-199.308	-44.6917	-70.9452	-189.792	-68.8721	-79.217	-193.225	-7.54111	-2.93351	-196.478	-8.75494	23.089	-161.726	-5.08895	15.0097	
48	0.4	-140.135	-35.4262	21.5631	-125.129	-48.7667	-4.61828	-109.221	-57.9257	-32.3268	-117.267	-65.0316	-56.3273	-137.014	-8.58204	-53.6797	-128.672	-25.2398	-79.2978	-126.68	-55.5556	-85.4041	-164.809	-0.948057	-59.4226	-154.535	-10.0923	-92.3552	-147.717	-43.4614	-108.32	-180.169	-14.8391	-58.0846	-179.704	-30.9777	-86.5588	-168.058	-61.3222	-93.3465	-200.212	-32.2203	-54.9611	-191.09	-53.6063	-68.7736	-182.945	-75.5014	-65.3622	-195.568	-6.2642	-3.81417	-199.362	-10.4556	20.8807	-167.299	-5.16804	15.3911	
